<?xml version="1.0" encoding="UTF-8" standalone="no"?>
<!-- Generator: Adobe Illustrator 14.0.0, SVG Export Plug-In . SVG Version: 6.00 Build 43363)  -->

<svg
   xmlns:dc="http://purl.org/dc/elements/1.1/"
   xmlns:cc="http://creativecommons.org/ns#"
   xmlns:rdf="http://www.w3.org/1999/02/22-rdf-syntax-ns#"
   xmlns:svg="http://www.w3.org/2000/svg"
   xmlns="http://www.w3.org/2000/svg"
   xmlns:sodipodi="http://sodipodi.sourceforge.net/DTD/sodipodi-0.dtd"
   xmlns:inkscape="http://www.inkscape.org/namespaces/inkscape"
   version="1.0"
   id="Layer_1"
   x="0px"
   y="0px"
   width="106.74691"
   height="72.946358"
   viewBox="0 0 106.74691 72.946357"
   enable-background="new 0 0 100 61.284"
   xml:space="preserve"
   inkscape:version="0.48.4 r9939"
   sodipodi:docname="icon_536.svg"><metadata
     id="metadata9"><rdf:RDF><cc:Work
         rdf:about=""><dc:format>image/svg+xml</dc:format><dc:type
           rdf:resource="http://purl.org/dc/dcmitype/StillImage" /></cc:Work></rdf:RDF></metadata><defs
     id="defs7" /><sodipodi:namedview
     pagecolor="#ffffff"
     bordercolor="#666666"
     borderopacity="1"
     objecttolerance="10"
     gridtolerance="10"
     guidetolerance="10"
     inkscape:pageopacity="0"
     inkscape:pageshadow="2"
     inkscape:window-width="1006"
     inkscape:window-height="799"
     id="namedview5"
     showgrid="false"
     inkscape:zoom="6.4800001"
     inkscape:cx="49.635255"
     inkscape:cy="31.51587"
     inkscape:window-x="10"
     inkscape:window-y="34"
     inkscape:window-maximized="0"
     inkscape:current-layer="Layer_1"
     fit-margin-top="0"
     fit-margin-left="0"
     fit-margin-right="0"
     fit-margin-bottom="0"><sodipodi:guide
       position="6.7469136,0.052449975"
       orientation="0,100"
       id="guide3756" /><sodipodi:guide
       position="106.74691,0.052449975"
       orientation="-61.284,0"
       id="guide3758" /><sodipodi:guide
       position="106.74691,61.33645"
       orientation="0,-100"
       id="guide3760" /><sodipodi:guide
       position="6.7469136,61.33645"
       orientation="61.284,0"
       id="guide3762" /></sodipodi:namedview><path
     d="M 44.34375 11.625 C 35.272871 11.744697 36.318 13.17875 29.71875 34.40625 C 28.56475 34.19125 27.37325 34.09375 26.15625 34.09375 C 15.45725 34.09375 6.75 42.801 6.75 53.5 C 6.75 59.096097 9.1350496 64.143015 12.9375 67.6875 C 12.919042 68.300908 12.883255 69.635334 12.875 69.90625 L 1.5 69.90625 L 1.5 71.40625 L 1.5 72.90625 C 1.5 72.90625 10.353452 72.89123 15.8125 72.90625 C 24.2037 72.92934 31.253662 72.97796 37.8125 72.90625 L 39.28125 72.875 L 39.28125 71.40625 C 39.28125 71.40625 39.301263 69.038382 39.3125 67.71875 C 43.143873 64.172034 45.5625 59.120303 45.5625 53.5 C 45.5625 45.494 40.687 38.585 33.75 35.625 C 34.172 34.297 34.60675 32.89 35.09375 31.375 C 63.47975 61.316 52.85 56.4555 68.125 57.0625 C 68.198 57.0625 68.27075 57.0635 68.34375 57.0625 C 70.15275 65.9015 77.97975 72.5625 87.34375 72.5625 C 98.04375 72.5625 106.75 63.8865 106.75 53.1875 C 106.75 42.4885 98.04375 33.78125 87.34375 33.78125 C 85.17375 33.78125 83.075 34.12125 81.125 34.78125 C 79.613 31.42925 77.85025 27.51025 75.78125 22.90625 L 77.125 19.28125 L 81.65625 19.1875 L 81.65625 15.40625 L 64.5625 15.40625 C 63.0685 17.45025 65.187 17.448 72.75 19.125 L 71.40625 22.84375 L 37.6875 22.84375 C 39.9605 14.90475 38.67525 15.482 48.90625 15.5 L 48.90625 11.625 C 47.14575 11.642125 45.63959 11.6079 44.34375 11.625 z M 69.71875 26.9375 L 60.1875 52.5625 L 36.6875 26.96875 L 69.71875 26.9375 z M 73.6875 28.5 L 77.34375 36.5625 C 71.73775 39.9525 67.9625 46.08275 67.9375 53.09375 L 64.34375 53.09375 L 73.6875 28.5 z M 87.34375 38.3125 C 95.53975 38.3125 102.21875 44.9905 102.21875 53.1875 C 102.21875 61.3845 95.53975 68.03125 87.34375 68.03125 C 80.48975 68.03125 74.71 63.3845 73 57.0625 C 88.471 57.0775 89.8465 57.8715 90.0625 55.1875 C 90.0415 54.4055 89.76525 53.8395 83.03125 38.9375 C 84.40025 38.5195 85.83975 38.3125 87.34375 38.3125 z M 26.15625 38.625 C 26.89525 38.625 27.6025 38.67625 28.3125 38.78125 C 27.063895 42.718772 26.24429 45.422546 25.625 47.40625 C 23.327124 47.47131 21.028267 47.793686 18.84375 48.4375 C 17.002108 48.980262 14.698851 49.839517 13.4375 52.0625 L 13.25 52.40625 L 13.25 52.8125 C 13.25 54.860533 13.191478 57.771142 13.125 60.625 C 11.958541 58.504589 11.28125 56.086166 11.28125 53.5 C 11.28125 45.304 17.96025 38.625 26.15625 38.625 z M 32.375 40 C 37.475 42.356 41 47.521 41 53.5 C 41 55.945803 40.425994 58.244178 39.375 60.28125 C 39.394499 57.349337 39.40625 54.147028 39.40625 52.34375 L 39.40625 51.9375 L 39.21875 51.59375 C 38.05583 49.524347 35.841425 48.889927 34.21875 48.4375 C 32.848475 48.055446 31.436017 47.771145 30 47.59375 C 30.626978 45.577626 31.338071 43.304299 32.375 40 z M 79.21875 40.71875 L 84.8125 53.15625 L 72.46875 53.125 C 72.48875 47.949 75.17975 43.36575 79.21875 40.71875 z M 24.6875 50.4375 C 24.070299 52.54018 24.140812 52.594792 24.125 53.28125 C 24.102 54.34325 24.95325 55.177 26.03125 55.25 C 27.329091 55.118335 27.619225 55.114446 29.09375 50.53125 C 30.564566 50.678613 32.013988 50.924316 33.40625 51.3125 C 34.752169 51.687763 35.896784 52.270965 36.40625 52.9375 C 36.401759 56.337022 36.348117 60.409179 36.3125 64.3125 C 33.651297 66.81488 30.088743 68.34375 26.15625 68.34375 C 22.24241 68.34375 18.688738 66.825115 16.03125 64.34375 C 16.130723 60.759009 16.236714 56.619005 16.25 53.40625 C 16.920838 52.429185 18.202728 51.759297 19.71875 51.3125 C 21.31603 50.841754 22.984196 50.554552 24.6875 50.4375 z "
     id="path3" /><g
     id="g3772"
     transform="matrix(2.4925296,0,0,2.4925296,-2.1296274,26.851405)"><path
       style="fill:#000000;stroke-width:3;stroke-linecap:butt;stroke-linejoin:miter;stroke-miterlimit:4;stroke-dasharray:none"
       d="M 4.96875 0 C 4.1400011 0 3.46875 0.67125111 3.46875 1.5 L 3.46875 22.9375 C 3.46875 23.766249 4.1400011 24.40625 4.96875 24.40625 L 23.46875 24.40625 C 24.297499 24.40625 24.96875 23.766249 24.96875 22.9375 L 24.96875 1.5 C 24.96875 0.67125111 24.297499 0 23.46875 0 L 4.96875 0 z M 7.625 4.1875 L 14.46875 4.1875 C 16.507145 4.187516 18.100338 4.6541732 19.1875 5.5625 C 20.281788 6.4637038 20.812485 7.7638739 20.8125 9.4375 C 20.812485 11.1183 20.281788 12.404166 19.1875 13.3125 C 18.100338 14.213696 16.507145 14.656256 14.46875 14.65625 L 11.75 14.65625 L 11.75 20.21875 L 7.625 20.21875 L 7.625 4.1875 z M 11.75 7.1875 L 11.75 11.65625 L 14.03125 11.65625 C 14.832299 11.656259 15.46995 11.479983 15.90625 11.09375 C 16.34253 10.700383 16.562489 10.15274 16.5625 9.4375 C 16.562489 8.7222813 16.34253 8.1674864 15.90625 7.78125 C 15.46995 7.3950385 14.832299 7.187513 14.03125 7.1875 L 11.75 7.1875 z "
       transform="matrix(0.40119885,0,0,0.40119885,0.85440406,-10.772753)"
       id="rect3766" /></g></svg>