<svg xmlns="http://www.w3.org/2000/svg" xmlns:xlink="http://www.w3.org/1999/xlink" version="1.1" id="Your_Icon" x="0px" y="0px" width="100px" height="100px" viewBox="0 0 100 100" enable-background="new 0 0 100 100" xml:space="preserve">
<path fill="#000000" d="M48.947,11.08c0-3.972-3.111-7.08-7.081-7.08c-3.974,0-7.082,3.108-7.082,7.08  c0,3.971,3.108,7.082,7.082,7.082C45.835,18.162,48.947,15.051,48.947,11.08z"/>
<path fill="#000000" d="M71.465,30.522c0,0-8.447-4.743-12.188-6.708c-3.744-1.97-11.175-7.06-17.801-1.17  C38.467,25.319,35,39,35,39l-14,8.634l2.299,3.204l15.251-5.544l4.262-5.516l4.513,9.945l-9.109,15.962l-7.188,26.828l7.438,2.508  l8.357-25.072l6.185-6.102l13.539,32.01l6.52-3.01L62.119,53.902c0,0,1.365-2.799,1.365-7.254c0-5.11-4.039-13.473-4.039-13.473  l6.611,1.518l1.48,16.639l4.162,0.391L71.465,30.522z"/>
</svg>