<?xml version="1.0" encoding="UTF-8" standalone="no"?>
<!-- Generator: Adobe Illustrator 14.0.0, SVG Export Plug-In . SVG Version: 6.00 Build 43363)  -->

<svg
   xmlns:dc="http://purl.org/dc/elements/1.1/"
   xmlns:cc="http://creativecommons.org/ns#"
   xmlns:rdf="http://www.w3.org/1999/02/22-rdf-syntax-ns#"
   xmlns:svg="http://www.w3.org/2000/svg"
   xmlns="http://www.w3.org/2000/svg"
   xmlns:sodipodi="http://sodipodi.sourceforge.net/DTD/sodipodi-0.dtd"
   xmlns:inkscape="http://www.inkscape.org/namespaces/inkscape"
   version="1.0"
   id="Layer_1"
   x="0px"
   y="0px"
   width="103.27816"
   height="72.893906"
   viewBox="0 0 103.27816 72.893905"
   enable-background="new 0 0 100 61.284"
   xml:space="preserve"
   inkscape:version="0.48.4 r9939"
   sodipodi:docname="shop.svg"><metadata
     id="metadata9"><rdf:RDF><cc:Work
         rdf:about=""><dc:format>image/svg+xml</dc:format><dc:type
           rdf:resource="http://purl.org/dc/dcmitype/StillImage" /><dc:title></dc:title></cc:Work></rdf:RDF></metadata><defs
     id="defs7" /><sodipodi:namedview
     pagecolor="#ffffff"
     bordercolor="#666666"
     borderopacity="1"
     objecttolerance="10"
     gridtolerance="10"
     guidetolerance="10"
     inkscape:pageopacity="0"
     inkscape:pageshadow="2"
     inkscape:window-width="1006"
     inkscape:window-height="799"
     id="namedview5"
     showgrid="false"
     inkscape:zoom="2.291026"
     inkscape:cx="35.340108"
     inkscape:cy="-9.7824257"
     inkscape:window-x="14"
     inkscape:window-y="24"
     inkscape:window-maximized="0"
     inkscape:current-layer="Layer_1"
     fit-margin-top="0"
     fit-margin-left="0"
     fit-margin-right="0"
     fit-margin-bottom="0"><sodipodi:guide
       position="3.2781636,1.6439607e-06"
       orientation="0,100"
       id="guide3756" /><sodipodi:guide
       position="103.27816,1.6439607e-06"
       orientation="-61.284,0"
       id="guide3758" /></sodipodi:namedview><path
     d="m 83.874164,33.766909 c -2.17,0 -4.255,0.364 -6.205,1.024 -1.512,-3.352 -3.279,-7.274 -5.348,-11.878 l 1.32,-3.63 4.537,-0.083 v -3.795 h -17.078 c -1.494,2.044 0.605,2.035 8.168,3.712 l -1.32,3.713 h -33.743 c 2.273,-7.939 0.989,-7.361 11.22,-7.343 v -3.877 c -14.084,0.137 -11.642,-1.45 -19.184,22.81 -1.154,-0.215 -2.343,-0.333 -3.56,-0.333 -10.699,0 -19.4030004,8.705 -19.4030004,19.404 0,10.699 8.7040004,19.403 19.4030004,19.403 10.7,0 19.404,-8.704 19.404,-19.403 0,-8.006 -4.875,-14.895 -11.812,-17.855 0.422,-1.328 0.876,-2.746 1.363,-4.261 28.386,29.941 17.737,25.087 33.012,25.694 0.073,0 0.143,-10e-4 0.216,-0.002 1.809,8.839 9.646,15.508 19.01,15.508 10.7,0 19.403996,-8.704 19.403996,-19.403 0,-10.699 -8.703996,-19.405 -19.403996,-19.405 z m -46.328,19.724 c 0,8.196 -6.668,14.864 -14.864,14.864 -8.196,0 -14.865,-6.668 -14.865,-14.864 0,-8.196 6.668,-14.864 14.864,-14.864 0.739,0 1.465,0.056 2.175,0.161 -4.735,14.932 -4.167,13.232 -4.196,14.491 -0.023,1.062 0.834,1.904 1.912,1.977 1.932,-0.196 1.497,0.124 6.325,-15.261 5.1,2.356 8.649,7.517 8.649,13.496 z m 19.16,-0.925 -23.477,-25.584 33.019,-0.059 -9.542,25.643 z m 7.766,0.537 -3.61,-0.011 9.367,-24.588 3.634,8.052 c -5.606,3.39 -9.366,9.536 -9.391,16.547 z m 11.277,-12.369 5.604,12.417 -12.342,-0.035 c 0.02,-5.176 2.699,-9.735 6.738,-12.382 z m 8.125,27.302 c -6.854,0 -12.638,-4.666 -14.348,-10.988 15.471,0.015 16.851,0.808 17.067,-1.876 -0.021,-0.782 -0.312,-1.318 -7.046,-16.22 1.369,-0.418 2.822,-0.645 4.326,-0.645 8.196,0 14.863996,6.668 14.863996,14.865 0,8.197 -6.666996,14.864 -14.862996,14.864 z"
     id="path3"
     inkscape:connector-curvature="0" /><path
     style="fill:#000000;stroke-width:3;stroke-linecap:butt;stroke-linejoin:miter;stroke-miterlimit:4;stroke-dasharray:none"
     d="M 1.5,-3.3099248e-7 C 0.6712511,-3.3099248e-7 0,0.67125078 0,1.4999997 L 0,22.9375 c 0,0.828749 0.6712511,1.46875 1.5,1.46875 l 18.5,0 c 0.828749,0 1.5,-0.640001 1.5,-1.46875 l 0,-21.4375003 C 21.5,0.67125078 20.828749,-3.3099248e-7 20,-3.3099248e-7 l -18.5,0 z M 15.40625,2.4687497 c 0.365004,-0.020323 0.735591,0.013228 1.09375,0.09375 l -2.15625,2.59375 2.625,2.15625 2.15625,-2.5625 c 0.60347,1.3427215 0.409156,2.9658153 -0.625,4.21875 -1.000076,1.2116443 -2.505969,1.7108543 -3.90625,1.4375003 l -4.875,5.90625 c 0.533863,1.323066 0.343825,2.913356 -0.65625,4.125 C 8.028344,21.690435 6.4327778,22.181721 5,21.84375 L 7.125,19.25 4.5,17.09375 2.375,19.6875 C 1.7871517,18.341905 1.9735908,16.681049 3,15.4375 4.0000752,14.225856 5.5059677,13.726645 6.90625,14 l 4.875,-5.9062503 c -0.533864,-1.3230651 -0.312575,-2.8821063 0.6875,-4.09375 0.769808,-0.9326616 1.842489,-1.4702801 2.9375,-1.53125 z"
     id="rect3766"
     inkscape:connector-curvature="0" /></svg>